<svg width="15" height="15" viewBox="0 0 15 15" fill="none" xmlns="http://www.w3.org/2000/svg">
<path d="M0.543701 14.7188L1.75776 9.82973L9.2062 2.38129L12.8812 6.05629L5.43276 13.5047L0.543701 14.7188ZM2.61089 10.2891L1.82339 13.4391L4.97339 12.6516L11.6015 6.02348L9.23901 3.66097L2.61089 10.2891Z" fill="white"/>
<path d="M4.64529 13.2094C4.31717 11.9297 3.33279 10.9454 2.0531 10.6172L2.28279 9.69849C3.8906 10.0922 5.13748 11.3391 5.53123 12.9469L4.64529 13.2094Z" fill="white"/>
<path d="M4.54687 11.4047L3.89062 10.7156L10.4203 4.18591L11.0766 4.84216L4.54687 11.4047Z" fill="white"/>
<path d="M1.19995 14.0625L2.6437 13.7016C2.51245 13.1766 2.08589 12.75 1.56089 12.6188L1.19995 14.0625Z" fill="white"/>
<path d="M13.2421 5.69533L9.56714 2.02032L11.0437 0.543762L11.2734 0.576577C13.0453 0.806264 14.4562 2.2172 14.6859 3.98907L14.7187 4.21877L13.2421 5.69533ZM10.9124 2.02032L13.275 4.38283L13.7343 3.92346C13.4718 2.74221 12.5531 1.82345 11.3718 1.56095L10.9124 2.02032Z" fill="white"/>
</svg>
